<?xml version="1.0" standalone="no"?>
<!DOCTYPE svg PUBLIC "-//W3C//DTD SVG 20010904//EN"
 "http://www.w3.org/TR/2001/REC-SVG-20010904/DTD/svg10.dtd">
<svg version="1.0" xmlns="http://www.w3.org/2000/svg"
 width="400.000000pt" height="400.000000pt" viewBox="0 0 400.000000 400.000000"
 preserveAspectRatio="xMidYMid meet">
<metadata>
Created by potrace 1.15, written by Peter Selinger 2001-2017
</metadata>
<g transform="translate(0.000000,400.000000) scale(0.100000,-0.100000)"
fill="#000000" stroke="none">
<path d="M2158 2984 c-56 -30 -64 -90 -19 -135 l29 -29 332 0 332 0 29 29 c34
35 38 77 10 112 -17 21 -30 25 -118 30 -54 4 -204 7 -333 8 -189 0 -240 -3
-262 -15z"/>
<path d="M410 2753 c-35 -13 -60 -47 -60 -82 1 -40 14 -62 47 -79 15 -9 143
-12 447 -12 l426 0 -6 -42 c-4 -24 -16 -74 -28 -113 l-22 -70 -511 -5 c-485
-5 -512 -6 -532 -24 -29 -26 -51 -106 -51 -185 0 -178 94 -327 255 -407 65
-32 86 -37 167 -42 76 -4 108 0 173 17 98 27 221 84 306 142 81 54 213 188
259 262 l35 56 619 1 619 0 -7 -56 c-3 -30 -16 -85 -29 -122 l-22 -67 -510 -5
c-280 -3 -516 -9 -524 -14 -23 -15 -51 -93 -57 -158 -18 -188 83 -364 256
-447 69 -33 84 -36 180 -39 100 -3 110 -2 210 33 221 78 392 208 512 391 l42
64 436 0 437 0 23 25 c34 37 33 90 -4 121 l-27 24 -395 0 c-372 0 -395 1 -390
18 37 120 55 290 37 345 -23 69 2 67 -697 67 -592 0 -626 1 -619 18 18 44 45
204 45 265 0 62 -3 71 -29 98 l-29 29 -484 -1 c-266 0 -490 -3 -498 -6z m681
-601 c-14 -26 -119 -123 -174 -161 -120 -82 -282 -137 -374 -128 -135 14 -243
131 -243 263 l0 44 400 0 c379 0 400 -1 391 -18z m1289 -411 c0 -20 -103 -121
-174 -170 -130 -90 -297 -148 -386 -136 -150 21 -253 148 -241 298 1 16 27 17
401 17 237 0 400 -4 400 -9z"/>
<path d="M1734 2749 c-45 -13 -101 -72 -114 -121 -28 -103 42 -212 140 -220
34 -3 34 -3 55 65 25 86 54 117 105 117 74 0 107 -66 81 -158 l-10 -33 87 3
86 3 22 69 c35 112 97 146 164 89 30 -25 32 -30 27 -77 -2 -28 -8 -59 -12 -68
-6 -16 -1 -18 42 -18 197 0 266 250 93 338 -43 22 -50 22 -390 21 -190 0 -359
-5 -376 -10z"/>
<path d="M3154 2560 c-55 -22 -69 -91 -30 -137 l24 -28 233 -3 233 -3 -27 27
c-37 37 -37 91 -1 128 l27 26 -219 -1 c-121 0 -229 -4 -240 -9z"/>
<path d="M3715 2545 c36 -35 35 -97 -1 -130 l-27 -25 67 0 c61 0 70 3 97 29
20 20 29 39 29 61 0 22 -9 41 -29 61 -27 26 -36 29 -95 29 l-65 0 24 -25z"/>
<path d="M3005 2324 c-45 -23 -66 -45 -86 -89 -73 -158 90 -298 283 -245 38
11 98 54 98 71 0 5 -31 9 -69 9 -60 0 -74 3 -100 26 -24 20 -31 34 -31 61 0
71 45 103 145 103 52 0 55 1 46 19 -6 10 -30 28 -54 40 -55 26 -186 29 -232 5z"/>
<path d="M3425 2225 c-33 -32 -33 -84 -2 -119 51 -57 147 -20 147 56 -1 77
-92 117 -145 63z"/>
<path d="M1302 2053 c-7 -2 -43 -47 -81 -98 -102 -137 -229 -235 -377 -291
-82 -31 -196 -54 -266 -54 -41 0 -54 -5 -79 -29 -33 -33 -36 -58 -14 -101 20
-38 46 -44 159 -37 162 10 333 71 477 167 130 88 293 278 306 355 10 60 -64
113 -125 88z"/>
<path d="M294 1665 c-30 -12 -54 -50 -54 -86 0 -31 53 -79 88 -79 36 0 78 31
86 65 5 20 -15 95 -26 95 -2 0 -17 4 -34 9 -20 6 -40 5 -60 -4z"/>
<path d="M2598 1619 c-10 -5 -37 -38 -60 -72 -129 -190 -308 -308 -536 -353
-41 -8 -95 -14 -122 -14 -56 0 -95 -26 -105 -69 -8 -39 18 -89 51 -97 45 -11
215 4 294 26 100 28 260 107 340 168 126 96 270 274 270 335 0 60 -81 106
-132 76z"/>
<path d="M1565 1195 c-31 -30 -33 -82 -4 -119 16 -20 29 -26 60 -26 53 0 89
35 89 85 0 25 -8 44 -25 60 -16 17 -35 25 -60 25 -25 0 -44 -8 -60 -25z"/>
<path d="M660 730 l0 -130 85 0 c78 0 85 2 85 20 0 18 -7 20 -60 20 l-60 0 0
35 c0 35 0 35 45 35 38 0 45 3 45 20 0 17 -7 20 -45 20 -45 0 -45 0 -45 35 l0
35 60 0 c53 0 60 2 60 20 0 18 -7 20 -85 20 l-85 0 0 -130z"/>
<path d="M1075 835 c-27 -26 -32 -62 -12 -88 6 -9 34 -25 60 -37 34 -14 48
-25 45 -36 -5 -29 -34 -40 -70 -26 -26 10 -35 9 -46 -1 -18 -18 3 -36 52 -44
52 -8 93 12 106 53 16 46 -3 75 -65 98 -37 15 -46 22 -43 40 3 18 10 21 50 21
55 0 70 11 44 31 -32 23 -93 18 -121 -11z"/>
<path d="M1450 730 l0 -130 25 0 c23 0 25 4 25 44 l0 43 47 6 c75 8 110 60 82
121 -14 31 -56 46 -125 46 l-54 0 0 -130z"/>
<path d="M1919 845 c-40 -22 -61 -62 -61 -115 0 -80 50 -130 130 -130 55 0
103 35 122 88 13 37 13 47 0 84 -27 76 -120 112 -191 73z m118 -49 c22 -19 28
-32 28 -66 0 -34 -6 -47 -28 -66 -34 -29 -66 -30 -101 -3 -22 17 -26 28 -26
69 0 41 4 52 26 69 35 27 67 26 101 -3z"/>
<path d="M2350 731 l0 -131 25 0 c23 0 25 3 25 50 0 42 3 50 19 50 11 0 30
-19 49 -50 24 -39 37 -50 57 -50 14 0 25 3 25 6 0 4 -15 28 -34 53 l-33 47 23
21 c17 15 24 32 24 56 0 52 -28 71 -111 75 l-69 4 0 -131z"/>
<path d="M2750 840 c0 -17 7 -20 40 -20 l40 0 0 -110 0 -110 25 0 25 0 0 110
0 110 35 0 c28 0 35 4 35 20 0 19 -7 20 -100 20 -93 0 -100 -1 -100 -20z"/>
<path d="M3195 835 c-27 -26 -32 -62 -12 -88 6 -9 34 -25 60 -37 34 -14 48
-25 45 -36 -5 -29 -34 -40 -70 -26 -27 10 -35 9 -46 -2 -13 -12 -10 -16 16
-30 58 -30 122 -14 143 36 18 44 -1 75 -62 100 -40 17 -49 25 -47 42 3 18 10
21 50 21 55 0 70 11 44 31 -32 23 -93 18 -121 -11z"/>
</g>
</svg>
